<?xml version="1.0" standalone="no"?>
<!DOCTYPE svg PUBLIC "-//W3C//DTD SVG 20010904//EN"
 "http://www.w3.org/TR/2001/REC-SVG-20010904/DTD/svg10.dtd">
<svg version="1.0" xmlns="http://www.w3.org/2000/svg"
 width="186.000000pt" height="186.000000pt" viewBox="0 0 186.000000 186.000000"
 preserveAspectRatio="xMidYMid meet">

<g transform="translate(0.000000,186.000000) scale(0.100000,-0.100000)"
fill="#000000" stroke="none">
<path d="M795 1306 c-128 -26 -283 -112 -412 -230 -71 -65 -163 -177 -163
-199 0 -17 112 -143 187 -210 108 -95 245 -173 355 -203 68 -18 218 -18 286 0
122 33 279 126 393 233 81 77 149 163 149 189 0 27 -152 188 -242 257 -191
146 -372 200 -553 163z m271 -96 c75 -26 153 -70 234 -133 87 -67 190 -173
190 -196 0 -21 -162 -181 -230 -228 -60 -40 -162 -92 -219 -109 -70 -21 -206
-18 -282 7 -58 19 -187 82 -199 98 -3 3 -23 19 -45 35 -62 45 -195 179 -195
197 0 21 160 175 240 231 176 122 343 154 506 98z"/>
<path d="M824 1138 c-57 -19 -127 -80 -156 -138 -76 -151 1 -324 168 -377 141
-44 300 56 335 212 42 187 -160 363 -347 303z m162 -89 c25 -12 57 -38 72 -57
24 -31 27 -45 27 -107 0 -63 -3 -76 -29 -109 -41 -55 -81 -76 -144 -76 -69 0
-117 23 -153 73 -71 98 -36 226 76 278 53 24 95 24 151 -2z"/>
</g>
</svg>
