<?xml version="1.0" standalone="no"?>
<!DOCTYPE svg PUBLIC "-//W3C//DTD SVG 20010904//EN"
 "http://www.w3.org/TR/2001/REC-SVG-20010904/DTD/svg10.dtd">
<svg version="1.0" xmlns="http://www.w3.org/2000/svg"
 width="186.000000pt" height="186.000000pt" viewBox="0 0 186.000000 186.000000"
 preserveAspectRatio="xMidYMid meet">

<g transform="translate(0.000000,186.000000) scale(0.100000,-0.100000)"
fill="#000000" stroke="none">
<path d="M1286 1310 c-40 -38 -79 -70 -86 -70 -8 0 -39 9 -69 19 -106 36 -201
45 -304 31 -163 -24 -300 -88 -418 -198 -81 -74 -159 -178 -159 -210 0 -45
121 -189 222 -264 l69 -51 -67 -68 c-53 -53 -65 -71 -59 -88 4 -14 15 -21 33
-21 21 0 113 87 489 462 255 255 466 471 469 482 6 19 -17 46 -39 46 -5 0 -42
-31 -81 -70z m-214 -110 c70 -18 74 -30 29 -74 l-39 -38 -64 22 c-154 54 -306
-37 -333 -198 -5 -33 -1 -61 15 -113 l23 -70 -52 -49 c-51 -48 -54 -49 -80
-35 -76 39 -241 205 -241 242 0 25 193 207 260 246 58 33 147 66 220 81 41 8
211 -1 262 -14z m-91 -166 c11 -14 -2 -30 -99 -127 -123 -121 -130 -123 -139
-42 -12 101 64 184 168 185 40 0 60 -5 70 -16z"/>
<path d="M1327 1112 c-10 -10 -17 -21 -17 -25 0 -3 23 -28 51 -54 28 -26 69
-69 91 -96 39 -46 40 -50 27 -75 -28 -55 -182 -196 -256 -235 -129 -68 -181
-80 -330 -79 -126 0 -132 0 -154 -24 -12 -13 -20 -26 -17 -29 15 -15 135 -27
228 -22 98 5 187 25 260 60 52 24 157 96 207 141 72 65 153 175 153 208 0 32
-67 123 -144 196 -60 57 -74 62 -99 34z"/>
<path d="M1113 898 c-17 -18 -36 -49 -42 -69 -15 -46 -63 -95 -109 -110 -20
-6 -52 -25 -69 -40 -32 -28 -32 -29 -12 -39 22 -13 102 1 149 25 37 19 87 75
103 115 21 49 30 116 20 135 -8 13 -14 10 -40 -17z"/>
</g>
</svg>
