<svg width="73" height="89" viewBox="0 0 73 89" fill="none" xmlns="http://www.w3.org/2000/svg">
<mask id="mask0_63_180" style="mask-type:luminance" maskUnits="userSpaceOnUse" x="0" y="0" width="73" height="89">
<path d="M72.997 0H0V88.12H72.997V0Z" fill="white"/>
</mask>
<g mask="url(#mask0_63_180)">
<path d="M63.889 75.7501L63.3 74.13L62.91 73.04L62.889 72.9901V72.97L37.8 3.51004C37.79 3.49004 37.79 3.47005 37.78 3.46005C37.77 3.45005 37.769 3.44005 37.769 3.43005H37.759C37.75 3.41005 37.75 3.41005 37.75 3.40005C37.7507 3.39463 37.7501 3.3891 37.7484 3.38391C37.7467 3.37872 37.7438 3.37401 37.7401 3.37006V3.36005C37.7331 3.34789 37.7296 3.33404 37.73 3.32004L37.72 3.31006L36.54 0.0400391L62.31 25.8101C68.8705 32.3748 72.6851 41.1914 72.9784 50.4677C73.2717 59.744 70.0217 68.784 63.889 75.7501Z" fill="url(#paint0_linear_63_180)"/>
<path d="M36.4591 0.0400391L35.2801 3.31006C35.2708 3.32918 35.2638 3.34931 35.2591 3.37006C35.2585 3.37755 35.2553 3.3846 35.2501 3.39005C35.2505 3.40405 35.2471 3.4179 35.2401 3.43005H35.2301L35.2091 3.51004H35.1991L10.1601 72.8401C10.1462 72.8811 10.1295 72.9212 10.1101 72.9601C10.1017 72.9795 10.0947 72.9996 10.0891 73.0201V73.0301L10.0801 73.04L9.11011 75.7401C5.5601 71.7097 2.94329 66.9456 1.44635 61.7875C-0.0505883 56.6295 -0.390758 51.2047 0.450102 45.9001V45.88C0.459102 45.87 0.459105 45.87 0.459105 45.86C1.65979 38.2618 5.24228 31.2411 10.6901 25.8101L36.4301 0.0700378L36.4591 0.0400391Z" fill="url(#paint1_linear_63_180)"/>
<path d="M63.889 75.75C63.379 76.32 62.86 76.88 62.31 77.43C58.9236 80.8234 54.9003 83.5145 50.4711 85.349C46.0419 87.1835 41.2941 88.1252 36.5 88.12V0L36.54 0.039978L37.72 3.31L37.73 3.31998C37.7296 3.33398 37.733 3.34783 37.74 3.35999V3.37C37.7438 3.37395 37.7466 3.37866 37.7484 3.38385C37.7501 3.38904 37.7507 3.39457 37.75 3.39999C37.75 3.40999 37.75 3.40999 37.759 3.42999L37.78 3.45999C37.79 3.46999 37.79 3.48998 37.8 3.50998L62.889 72.97V72.99L62.91 73.04L63.3 74.13L63.889 75.75Z" fill="url(#paint2_linear_63_180)"/>
<path d="M36.5004 0V88.12C31.7057 88.1292 26.9566 87.1893 22.5269 85.3546C18.0972 83.5199 14.0744 80.8266 10.6904 77.43C10.1394 76.88 9.62035 76.32 9.11035 75.75V75.74L10.0804 73.04L10.0894 73.03V73.02C10.0949 72.9995 10.1019 72.9795 10.1104 72.96C10.1297 72.9212 10.1464 72.8811 10.1604 72.84L35.1994 3.50998H35.2094C35.2228 3.48462 35.2332 3.45778 35.2404 3.42999C35.2473 3.41784 35.2508 3.40398 35.2504 3.38998C35.2555 3.38454 35.2587 3.37749 35.2594 3.37C35.264 3.34925 35.271 3.32912 35.2803 3.31L36.4594 0.039978L36.5004 0Z" fill="url(#paint3_linear_63_180)"/>
<g style="mix-blend-mode:overlay">
<path d="M35.2592 3.36597C35.2477 3.41434 35.231 3.46127 35.2092 3.50595C35.0892 3.91595 34.7902 4.90596 34.3392 6.35596C33.7202 8.28596 32.8702 11.056 31.7692 14.356C30.6902 17.666 29.3892 21.506 27.9692 25.606C27.2492 27.656 26.5082 29.776 25.7582 31.926C24.9892 34.076 24.2082 36.256 23.4292 38.446C21.8382 42.796 20.2582 47.146 18.7192 51.206C17.1802 55.266 15.7292 59.056 14.4482 62.296C13.1672 65.536 12.0682 68.206 11.3092 70.086C10.7292 71.496 10.3282 72.446 10.1592 72.836L35.1982 3.50595C35.2138 3.45736 35.2342 3.41047 35.2592 3.36597Z" fill="white"/>
</g>
<g style="mix-blend-mode:overlay">
<path d="M62.8892 72.9801C62.7802 72.7401 62.3502 71.7201 61.6802 70.0901C60.9302 68.2101 59.8102 65.5401 58.5402 62.3001C57.2702 59.0601 55.8102 55.2801 54.2802 51.2101C52.7502 47.1401 51.1492 42.8001 49.5602 38.4501C48.7802 36.2601 48.0002 34.0801 47.2402 31.9301C46.4802 29.7801 45.7402 27.6601 45.0302 25.6101C43.6002 21.5101 42.3102 17.6701 41.2202 14.3601C40.1302 11.0501 39.2802 8.29011 38.6492 6.36011C38.1702 4.78011 37.8602 3.76011 37.7592 3.43011C37.7502 3.40011 37.7402 3.39012 37.7402 3.37012C37.7653 3.41446 37.7854 3.46139 37.8002 3.5101L62.8892 72.9801Z" fill="white"/>
</g>
<g style="mix-blend-mode:overlay">
<path d="M37.3 43.7899C37.269 49.0099 37.259 54.2199 37.19 59.1199C37.121 64.0199 36.99 68.5799 36.92 72.4899C36.85 76.3999 36.68 79.6699 36.62 81.9499C36.569 83.0899 36.53 83.9899 36.5 84.5999V2.96588C36.53 2.36588 36.54 2.03589 36.54 2.03589C36.54 2.03589 36.589 3.33591 36.69 5.61591C36.75 7.90591 36.91 11.1659 36.98 15.0759C37.05 18.9859 37.17 23.5559 37.22 28.4559C37.24 30.8959 37.259 33.4259 37.28 35.9959C37.28 38.5659 37.29 41.1799 37.3 43.7899Z" fill="white"/>
</g>
<g style="mix-blend-mode:screen" opacity="0.4">
<path d="M36.43 0.065918C36.17 0.415918 33.959 3.27593 30.5 7.20593C29.589 8.25593 28.589 9.38592 27.509 10.5659C26.429 11.7459 25.309 12.9959 24.109 14.2459C22.909 15.4959 21.689 16.8359 20.409 18.1359C19.129 19.4359 17.828 20.7659 16.529 22.0859C15.198 23.3859 13.878 24.6859 12.578 25.9659C11.929 26.5959 11.289 27.2259 10.659 27.8459C10.079 28.4559 9.50801 29.0659 8.96901 29.7159C7.92939 30.9545 6.95475 32.2463 6.04901 33.5859C5.19901 34.8759 4.46901 36.1559 3.82901 37.3559C2.81281 39.3222 1.94377 41.3612 1.22902 43.4559C0.979019 44.2259 0.758016 44.8359 0.638016 45.2559C0.549349 45.5659 0.489341 45.7659 0.458008 45.8559C1.65869 38.2577 5.24118 31.237 10.689 25.8059L36.43 0.065918Z" fill="white"/>
</g>
<g style="mix-blend-mode:multiply" opacity="0.25">
<path d="M65.5402 76.05L65.5602 76.12L65.0502 76.65L64.9902 76.71L65.2702 75.27L65.5402 76.05Z" fill="black"/>
</g>
<g style="mix-blend-mode:multiply" opacity="0.25">
<path d="M63.8888 75.75C63.3788 76.32 62.8598 76.88 62.3098 77.43C57.2317 82.5005 50.7739 85.9645 43.7409 87.3907C36.708 88.8168 29.4109 88.1418 22.7588 85.45C26.3085 86.5966 30.0015 87.2395 33.7298 87.36C34.6598 87.39 35.5788 87.37 36.4998 87.34C37.3998 87.29 38.3698 87.24 39.2498 87.12C40.1498 87.04 41.0598 86.87 41.9588 86.71C42.8498 86.53 43.7398 86.33 44.6288 86.1C45.4998 85.85 46.3788 85.62 47.2398 85.3C48.0998 85.01 48.9398 84.65 49.7688 84.31C50.5998 83.92 51.4198 83.56 52.2198 83.13C53.0298 82.73 53.8098 82.25 54.5788 81.79C55.3498 81.3 56.0998 80.8 56.8188 80.26C57.5378 79.72 58.2498 79.16 58.9398 78.57L59.9588 77.68L60.9298 76.74L61.1798 76.51L61.2688 76.42L61.3888 76.29L61.8698 75.78L62.7298 74.85L62.7898 74.78C62.9588 74.56 63.1288 74.35 63.2998 74.13C63.8698 73.42 64.4398 72.72 64.9798 72C65.5998 71 66.2798 70.03 66.8698 69.01C67.3988 67.96 68.0188 66.95 68.4798 65.87L69.1488 64.23L69.4898 63.41C69.5898 63.14 69.6698 62.85 69.7588 62.57C70.1453 61.4539 70.4625 60.3151 70.7088 59.16L71.0788 57.43C71.1965 56.8517 71.2832 56.2675 71.3388 55.68L71.5598 53.92C71.5998 53.33 71.5998 52.73 71.6288 52.14C71.6388 51.55 71.6898 50.96 71.6698 50.36L71.5598 48.59C71.5119 47.3996 71.3849 46.2136 71.1798 45.04L71.0598 44.16C70.9998 43.87 70.9298 43.58 70.8598 43.29L70.4488 41.55C70.3142 40.9669 70.1442 40.3925 69.9398 39.83L69.3788 38.12C68.9788 37 68.4488 35.92 67.9898 34.81L66.2688 31.63C65.5888 30.63 64.9298 29.61 64.2298 28.62C63.4588 27.68 62.7088 26.72 61.9198 25.78L59.4898 22.99L62.3098 25.81C68.8703 32.3748 72.6849 41.1913 72.9781 50.4676C73.2714 59.7439 70.0215 68.7839 63.8888 75.75Z" fill="black"/>
</g>
</g>
<defs>
<linearGradient id="paint0_linear_63_180" x1="40.8784" y1="1.32711" x2="89.576" y2="25.1798" gradientUnits="userSpaceOnUse">
<stop stop-color="#00F3FF"/>
<stop offset="0.238" stop-color="#00EFFC"/>
<stop offset="0.44" stop-color="#00E5F4"/>
<stop offset="0.629" stop-color="#00D3E7"/>
<stop offset="0.81" stop-color="#00BAD4"/>
<stop offset="0.983" stop-color="#009BBC"/>
<stop offset="1" stop-color="#0098BA"/>
</linearGradient>
<linearGradient id="paint1_linear_63_180" x1="34.4539" y1="-1.24686" x2="-17.8433" y2="23.3786" gradientUnits="userSpaceOnUse">
<stop stop-color="#F804DE"/>
<stop offset="0.074" stop-color="#F803CC"/>
<stop offset="0.293" stop-color="#F9029D"/>
<stop offset="0.501" stop-color="#FA0178"/>
<stop offset="0.695" stop-color="#FB005D"/>
<stop offset="0.867" stop-color="#FB004D"/>
<stop offset="1" stop-color="#FC0048"/>
</linearGradient>
<linearGradient id="paint2_linear_63_180" x1="40.6905" y1="25.4667" x2="77.1968" y2="46.4101" gradientUnits="userSpaceOnUse">
<stop stop-color="#00F3FF"/>
<stop offset="0.238" stop-color="#00EFFC"/>
<stop offset="0.44" stop-color="#00E5F4"/>
<stop offset="0.629" stop-color="#00D3E7"/>
<stop offset="0.81" stop-color="#00BAD4"/>
<stop offset="0.983" stop-color="#009BBC"/>
<stop offset="1" stop-color="#0098BA"/>
</linearGradient>
<linearGradient id="paint3_linear_63_180" x1="30.5019" y1="32.0757" x2="-4.62381" y2="54.0663" gradientUnits="userSpaceOnUse">
<stop stop-color="#F804DE"/>
<stop offset="0.074" stop-color="#F803CC"/>
<stop offset="0.293" stop-color="#F9029D"/>
<stop offset="0.501" stop-color="#FA0178"/>
<stop offset="0.695" stop-color="#FB005D"/>
<stop offset="0.867" stop-color="#FB004D"/>
<stop offset="1" stop-color="#FC0048"/>
</linearGradient>
</defs>
</svg>
